<svg width="92.937" height="10.62" viewBox="0 0 92.937 10.62" xmlns="http://www.w3.org/2000/svg"><g id="svgGroup" stroke-linecap="round" fill-rule="evenodd" font-size="9pt" stroke="#4f4f4f" stroke-width="0.15mm" fill="#d6d6d6" style="stroke:#4f4f4f;stroke-width:0.15mm;fill:#d6d6d6"><path d="M 0 1.443 L 0 0.755 A 0.747 0.747 0 0 1 0.042 0.5 A 0.654 0.654 0 0 1 0.198 0.257 A 0.668 0.668 0 0 1 0.659 0.06 A 0.884 0.884 0 0 1 0.696 0.059 L 9.99 0.059 A 0.747 0.747 0 0 1 10.245 0.101 A 0.654 0.654 0 0 1 10.488 0.257 A 0.668 0.668 0 0 1 10.685 0.717 A 0.884 0.884 0 0 1 10.686 0.755 L 10.686 1.443 A 0.747 0.747 0 0 1 10.648 1.685 A 0.637 0.637 0 0 1 10.488 1.937 Q 10.291 2.132 9.99 2.132 L 6.724 2.132 L 6.724 9.888 A 0.665 0.665 0 0 1 6.664 10.171 A 0.654 0.654 0 0 1 6.522 10.368 Q 6.321 10.562 6.035 10.562 L 4.651 10.562 Q 4.365 10.562 4.164 10.368 A 0.637 0.637 0 0 1 3.963 9.906 A 0.798 0.798 0 0 1 3.962 9.888 L 3.962 2.132 L 0.696 2.132 Q 0.396 2.132 0.198 1.937 A 0.652 0.652 0 0 1 0.002 1.494 A 0.872 0.872 0 0 1 0 1.443 Z" id="0" vector-effect="non-scaling-stroke"/><path d="M 11.88 9.859 L 11.88 0.74 A 0.644 0.644 0 0 1 12.072 0.269 A 0.778 0.778 0 0 1 12.085 0.257 A 0.682 0.682 0 0 1 12.576 0.059 L 21.021 0.059 A 0.656 0.656 0 0 1 21.5 0.256 A 0.806 0.806 0 0 1 21.508 0.264 A 0.675 0.675 0 0 1 21.709 0.752 A 0.777 0.777 0 0 1 21.709 0.755 L 21.709 1.443 A 0.663 0.663 0 0 1 21.514 1.924 A 0.795 0.795 0 0 1 21.508 1.93 A 0.663 0.663 0 0 1 21.029 2.131 A 0.804 0.804 0 0 1 21.021 2.132 L 14.641 2.132 L 14.641 4.263 L 20.134 4.263 A 0.663 0.663 0 0 1 20.615 4.458 A 0.795 0.795 0 0 1 20.621 4.464 A 0.663 0.663 0 0 1 20.823 4.942 A 0.804 0.804 0 0 1 20.823 4.951 L 20.823 5.64 A 0.663 0.663 0 0 1 20.628 6.121 A 0.795 0.795 0 0 1 20.621 6.127 A 0.663 0.663 0 0 1 20.143 6.328 A 0.804 0.804 0 0 1 20.134 6.328 L 14.641 6.328 L 14.641 8.489 L 21.006 8.489 A 0.648 0.648 0 0 1 21.476 8.681 A 0.789 0.789 0 0 1 21.482 8.687 A 0.656 0.656 0 0 1 21.68 9.161 A 0.817 0.817 0 0 1 21.68 9.17 L 21.68 9.873 A 0.656 0.656 0 0 1 21.483 10.352 A 0.806 0.806 0 0 1 21.475 10.36 A 0.675 0.675 0 0 1 20.986 10.562 A 0.777 0.777 0 0 1 20.984 10.562 L 12.576 10.562 A 0.675 0.675 0 0 1 12.087 10.362 A 0.806 0.806 0 0 1 12.085 10.36 A 0.672 0.672 0 0 1 11.88 9.873 A 0.871 0.871 0 0 1 11.88 9.859 Z" id="1" vector-effect="non-scaling-stroke"/><path d="M 27.891 0 L 29.524 0 A 5.428 5.428 0 0 1 31.34 0.297 A 4.916 4.916 0 0 1 32.465 0.864 A 3.049 3.049 0 0 1 33.268 1.637 Q 33.743 2.315 33.743 3.23 A 1.143 1.143 0 0 1 33.721 3.459 Q 33.694 3.592 33.633 3.691 A 0.555 0.555 0 0 1 33.486 3.849 A 1.155 1.155 0 0 1 33.304 3.959 Q 33.143 4.036 32.988 4.036 L 32.117 4.036 A 0.989 0.989 0 0 1 31.336 3.659 Q 31.211 3.512 31.107 3.308 A 2.454 2.454 0 0 1 31.069 3.23 Q 30.578 2.182 29.498 2.083 A 2.537 2.537 0 0 0 29.268 2.073 L 27.964 2.073 Q 26.36 2.073 25.789 2.761 A 1.849 1.849 0 0 0 25.494 3.29 Q 25.217 4.017 25.217 5.31 A 9.504 9.504 0 0 0 25.253 6.164 Q 25.36 7.343 25.789 7.863 A 1.568 1.568 0 0 0 26.377 8.291 Q 26.892 8.519 27.701 8.55 A 6.847 6.847 0 0 0 27.964 8.555 L 29.421 8.555 A 2.117 2.117 0 0 0 30.2 8.419 Q 30.74 8.207 31.073 7.665 A 2.559 2.559 0 0 0 31.216 7.398 A 1.985 1.985 0 0 1 31.432 7.028 Q 31.588 6.822 31.78 6.712 A 0.967 0.967 0 0 1 32.271 6.585 L 33.142 6.585 Q 33.486 6.585 33.688 6.841 Q 33.889 7.097 33.889 7.398 Q 33.889 8.796 32.783 9.639 A 3.632 3.632 0 0 1 32.615 9.76 A 5.045 5.045 0 0 1 30.011 10.611 A 6.206 6.206 0 0 1 29.678 10.62 L 27.891 10.62 Q 26.103 10.62 24.904 10.059 A 4.044 4.044 0 0 1 23.815 9.324 Q 22.719 8.278 22.507 6.31 A 9.316 9.316 0 0 1 22.456 5.314 A 8.601 8.601 0 0 1 22.576 3.827 Q 22.859 2.214 23.815 1.3 Q 24.907 0.255 26.876 0.05 A 9.804 9.804 0 0 1 27.891 0 Z" id="2" vector-effect="non-scaling-stroke"/><path d="M 35.31 9.873 L 35.31 0.755 Q 35.31 0.469 35.515 0.264 A 0.685 0.685 0 0 1 36.011 0.059 A 0.874 0.874 0 0 1 36.021 0.059 L 37.383 0.059 A 0.656 0.656 0 0 1 37.862 0.256 A 0.806 0.806 0 0 1 37.87 0.264 A 0.675 0.675 0 0 1 38.071 0.752 A 0.777 0.777 0 0 1 38.071 0.755 L 38.071 4.05 L 43.11 4.05 L 43.11 0.755 Q 43.11 0.469 43.315 0.264 A 0.686 0.686 0 0 1 43.587 0.093 A 0.695 0.695 0 0 1 43.806 0.059 L 45.168 0.059 A 0.722 0.722 0 0 1 45.443 0.11 A 0.671 0.671 0 0 1 45.67 0.264 A 0.675 0.675 0 0 1 45.872 0.752 A 0.777 0.777 0 0 1 45.872 0.755 L 45.872 9.873 Q 45.872 10.159 45.663 10.36 A 0.688 0.688 0 0 1 45.168 10.562 L 43.806 10.562 A 0.689 0.689 0 0 1 43.315 10.368 A 0.632 0.632 0 0 1 43.111 9.91 A 0.781 0.781 0 0 1 43.11 9.888 L 43.11 6.123 L 38.071 6.123 L 38.071 9.888 A 0.665 0.665 0 0 1 38.012 10.171 A 0.654 0.654 0 0 1 37.87 10.368 Q 37.668 10.562 37.383 10.562 L 36.021 10.562 Q 35.735 10.562 35.523 10.36 Q 35.31 10.159 35.31 9.873 Z" id="3" vector-effect="non-scaling-stroke"/><path d="M 54.294 10.562 L 52.734 10.562 A 0.6 0.6 0 0 1 52.58 10.544 Q 52.358 10.484 52.324 10.232 A 0.409 0.409 0 0 1 52.35 10.095 Q 52.387 9.991 52.478 9.873 L 56.169 5.164 L 52.69 0.755 Q 52.587 0.627 52.553 0.508 A 0.408 0.408 0 0 1 52.537 0.396 Q 52.537 0.059 52.939 0.059 L 54.514 0.059 A 1.465 1.465 0 0 1 55.482 0.426 A 2.256 2.256 0 0 1 55.796 0.755 L 57.803 3.303 L 59.81 0.755 A 2.12 2.12 0 0 1 60.206 0.362 A 1.474 1.474 0 0 1 61.091 0.059 L 62.666 0.059 Q 63.069 0.059 63.069 0.396 A 0.409 0.409 0 0 1 63.044 0.533 Q 63.006 0.637 62.915 0.755 L 59.436 5.164 L 63.127 9.873 Q 63.247 10.022 63.274 10.126 A 0.225 0.225 0 0 1 63.281 10.181 A 0.743 0.743 0 0 1 63.279 10.238 Q 63.275 10.294 63.261 10.329 A 0.146 0.146 0 0 1 63.252 10.349 Q 63.171 10.562 62.871 10.562 L 61.311 10.562 A 1.466 1.466 0 0 1 60.324 10.178 A 2.236 2.236 0 0 1 60.037 9.873 L 57.803 7.024 L 55.569 9.873 A 2.121 2.121 0 0 1 55.183 10.258 A 1.442 1.442 0 0 1 54.294 10.562 Z" id="5" vector-effect="non-scaling-stroke"/><path d="M 69.727 9.873 L 69.727 0.755 Q 69.727 0.469 69.932 0.264 A 0.686 0.686 0 0 1 70.204 0.093 A 0.695 0.695 0 0 1 70.422 0.059 L 76.377 0.059 A 6.017 6.017 0 0 1 77.605 0.176 Q 78.324 0.326 78.868 0.669 A 3.089 3.089 0 0 1 79.607 1.319 A 2.457 2.457 0 0 1 80.128 2.453 A 3.44 3.44 0 0 1 80.186 3.095 A 2.216 2.216 0 0 1 79.609 4.585 A 3.316 3.316 0 0 1 79.197 4.981 A 2.839 2.839 0 0 1 80.026 5.631 Q 80.522 6.211 80.592 7.045 A 3.353 3.353 0 0 1 80.603 7.324 Q 80.603 8.914 79.479 9.738 Q 78.355 10.562 76.721 10.562 L 70.422 10.562 A 0.675 0.675 0 0 1 69.933 10.362 A 0.806 0.806 0 0 1 69.932 10.36 Q 69.727 10.159 69.727 9.873 Z M 72.488 6.065 L 72.488 8.584 L 76.677 8.584 A 1.507 1.507 0 0 0 77.026 8.546 Q 77.303 8.48 77.49 8.301 A 0.95 0.95 0 0 0 77.542 8.247 Q 77.818 7.937 77.84 7.417 A 2.173 2.173 0 0 0 77.842 7.324 A 1.849 1.849 0 0 0 77.806 6.951 Q 77.759 6.72 77.647 6.542 A 1.048 1.048 0 0 0 77.542 6.402 A 0.97 0.97 0 0 0 77.034 6.104 Q 76.876 6.066 76.689 6.065 A 1.878 1.878 0 0 0 76.677 6.065 L 72.488 6.065 Z M 72.488 2.044 L 72.488 4.138 L 76.406 4.138 Q 76.868 4.138 77.146 3.864 Q 77.417 3.596 77.424 3.121 A 1.725 1.725 0 0 0 77.424 3.095 A 1.415 1.415 0 0 0 77.391 2.78 Q 77.339 2.552 77.205 2.388 A 0.874 0.874 0 0 0 77.146 2.322 A 0.933 0.933 0 0 0 76.627 2.061 A 1.326 1.326 0 0 0 76.406 2.044 L 72.488 2.044 Z" id="7" vector-effect="non-scaling-stroke"/><path d="M 86.939 0 L 88.572 0 A 5.428 5.428 0 0 1 90.388 0.297 A 4.916 4.916 0 0 1 91.512 0.864 A 3.049 3.049 0 0 1 92.316 1.637 Q 92.791 2.315 92.791 3.23 A 1.143 1.143 0 0 1 92.769 3.459 Q 92.742 3.592 92.68 3.691 A 0.555 0.555 0 0 1 92.534 3.849 A 1.155 1.155 0 0 1 92.352 3.959 Q 92.191 4.036 92.036 4.036 L 91.165 4.036 A 0.989 0.989 0 0 1 90.384 3.659 Q 90.259 3.512 90.155 3.308 A 2.454 2.454 0 0 1 90.117 3.23 Q 89.626 2.182 88.546 2.083 A 2.537 2.537 0 0 0 88.315 2.073 L 87.012 2.073 Q 85.408 2.073 84.836 2.761 A 1.849 1.849 0 0 0 84.541 3.29 Q 84.265 4.017 84.265 5.31 A 9.504 9.504 0 0 0 84.301 6.164 Q 84.407 7.343 84.836 7.863 A 1.568 1.568 0 0 0 85.425 8.291 Q 85.94 8.519 86.748 8.55 A 6.847 6.847 0 0 0 87.012 8.555 L 88.469 8.555 A 2.117 2.117 0 0 0 89.248 8.419 Q 89.788 8.207 90.121 7.665 A 2.559 2.559 0 0 0 90.264 7.398 A 1.985 1.985 0 0 1 90.48 7.028 Q 90.636 6.822 90.828 6.712 A 0.967 0.967 0 0 1 91.318 6.585 L 92.19 6.585 Q 92.534 6.585 92.736 6.841 Q 92.937 7.097 92.937 7.398 Q 92.937 8.796 91.831 9.639 A 3.632 3.632 0 0 1 91.663 9.76 A 5.045 5.045 0 0 1 89.059 10.611 A 6.206 6.206 0 0 1 88.726 10.62 L 86.939 10.62 Q 85.151 10.62 83.952 10.059 A 4.044 4.044 0 0 1 82.863 9.324 Q 81.767 8.278 81.555 6.31 A 9.316 9.316 0 0 1 81.504 5.314 A 8.601 8.601 0 0 1 81.624 3.827 Q 81.907 2.214 82.863 1.3 Q 83.955 0.255 85.924 0.05 A 9.804 9.804 0 0 1 86.939 0 Z" id="8" vector-effect="non-scaling-stroke"/></g></svg>