<svg width="225.718" height="23.438" viewBox="0 0 225.718 23.438" xmlns="http://www.w3.org/2000/svg"><g id="svgGroup" stroke-linecap="round" fill-rule="evenodd" font-size="9pt" stroke="#4f4f4f" stroke-width="0.15mm" fill="#d6d6d6" style="stroke:#4f4f4f;stroke-width:0.15mm;fill:#d6d6d6"><path d="M 14.063 22.969 L 11.25 22.969 L 11.25 2.813 L 0 2.813 L 0 0.469 L 25.313 0.469 L 25.313 2.813 L 14.063 2.813 L 14.063 22.969 Z" id="0" vector-effect="non-scaling-stroke"/><path d="M 52.002 22.969 L 29.502 22.969 L 29.502 0.469 L 51.592 0.469 L 51.592 2.813 L 32.314 2.813 L 32.314 10.313 L 50.786 10.313 L 50.786 12.656 L 32.314 12.656 L 32.314 20.625 L 52.002 20.625 L 52.002 22.969 Z" id="1" vector-effect="non-scaling-stroke"/><path d="M 54.814 12.012 L 54.814 11.426 A 50.584 50.584 0 0 1 54.856 9.32 Q 54.896 8.344 54.978 7.501 A 23.194 23.194 0 0 1 55.107 6.409 Q 55.332 4.855 55.805 3.744 A 6.46 6.46 0 0 1 56.118 3.106 Q 56.836 1.831 58.074 1.157 A 6.973 6.973 0 0 1 59.326 0.635 Q 60.161 0.374 61.187 0.242 A 26.126 26.126 0 0 1 62.7 0.094 Q 63.544 0.035 64.504 0.013 A 51.876 51.876 0 0 1 65.698 0 L 71.602 0 Q 73.882 0 75.623 0.163 A 24.775 24.775 0 0 1 76.692 0.286 A 10.908 10.908 0 0 1 78.126 0.576 Q 78.855 0.779 79.448 1.076 A 5.529 5.529 0 0 1 80.032 1.414 Q 81.299 2.256 81.87 3.889 A 8.675 8.675 0 0 1 82.207 5.2 Q 82.332 5.886 82.39 6.695 A 21.204 21.204 0 0 1 82.441 8.218 L 79.629 8.218 A 19.145 19.145 0 0 0 79.593 6.997 Q 79.52 5.864 79.302 5.092 A 5.039 5.039 0 0 0 79.248 4.915 A 3.609 3.609 0 0 0 78.871 4.093 A 2.637 2.637 0 0 0 77.966 3.208 A 4.002 4.002 0 0 0 77.163 2.858 Q 76.767 2.731 76.294 2.651 A 9.11 9.11 0 0 0 75.513 2.556 A 33.439 33.439 0 0 0 74.293 2.483 Q 73.703 2.457 73.03 2.444 A 75.414 75.414 0 0 0 71.602 2.432 L 65.698 2.432 Q 63.604 2.432 62.168 2.556 A 9.333 9.333 0 0 0 61.205 2.687 Q 60.732 2.779 60.337 2.917 A 4.396 4.396 0 0 0 59.832 3.127 A 2.971 2.971 0 0 0 58.52 4.415 A 3.708 3.708 0 0 0 58.455 4.541 Q 58.121 5.218 57.935 6.238 A 12.61 12.61 0 0 0 57.803 7.178 A 27.083 27.083 0 0 0 57.703 8.433 Q 57.627 9.734 57.627 11.426 L 57.627 12.012 A 58.317 58.317 0 0 0 57.65 13.692 Q 57.69 15.092 57.803 16.143 Q 57.979 17.783 58.455 18.765 Q 58.931 19.746 59.832 20.23 A 4.632 4.632 0 0 0 60.652 20.567 Q 61.067 20.695 61.555 20.777 A 9.521 9.521 0 0 0 62.168 20.859 Q 63.155 20.96 64.453 20.992 A 51.477 51.477 0 0 0 65.698 21.006 L 71.602 21.006 A 95.13 95.13 0 0 0 72.73 20.999 Q 74.241 20.982 75.356 20.913 A 32.367 32.367 0 0 0 75.513 20.903 A 9.007 9.007 0 0 0 76.482 20.79 Q 76.953 20.707 77.342 20.575 A 3.841 3.841 0 0 0 77.966 20.303 A 2.562 2.562 0 0 0 78.976 19.273 A 3.637 3.637 0 0 0 79.248 18.64 Q 79.592 17.588 79.625 15.765 A 21.88 21.88 0 0 0 79.629 15.366 L 82.441 15.366 A 20.957 20.957 0 0 1 82.386 16.945 Q 82.325 17.742 82.199 18.416 A 8.373 8.373 0 0 1 81.87 19.673 A 5.269 5.269 0 0 1 81.21 20.969 A 4.243 4.243 0 0 1 80.032 22.097 A 6.088 6.088 0 0 1 78.769 22.703 Q 77.858 23.026 76.692 23.174 A 28.983 28.983 0 0 1 75.004 23.335 Q 74.246 23.386 73.395 23.412 A 59.402 59.402 0 0 1 71.602 23.438 L 65.698 23.438 A 40.249 40.249 0 0 1 63.571 23.385 Q 61.672 23.284 60.278 22.991 A 8.379 8.379 0 0 1 58.816 22.55 Q 57.949 22.193 57.304 21.657 A 4.904 4.904 0 0 1 56.96 21.343 A 5.315 5.315 0 0 1 55.986 19.958 Q 55.679 19.345 55.465 18.596 A 10.52 10.52 0 0 1 55.291 17.886 A 18.579 18.579 0 0 1 55.019 16.174 Q 54.814 14.386 54.814 12.012 Z" id="2" vector-effect="non-scaling-stroke"/><path d="M 90.044 22.969 L 87.231 22.969 L 87.231 0.469 L 90.044 0.469 L 90.044 10.313 L 110.669 10.313 L 110.669 0.469 L 113.481 0.469 L 113.481 22.969 L 110.669 22.969 L 110.669 12.656 L 90.044 12.656 L 90.044 22.969 Z" id="3" vector-effect="non-scaling-stroke"/><path d="M 129.8 22.969 L 125.815 22.969 L 138.604 11.104 L 126.753 0.469 L 130.737 0.469 L 140.552 9.287 L 150.059 0.469 L 154.043 0.469 L 142.588 11.104 L 155.815 22.969 L 151.831 22.969 L 140.625 12.92 L 129.8 22.969 Z" id="5" vector-effect="non-scaling-stroke"/><path d="M 184.775 22.969 L 168.091 22.969 L 168.091 0.469 L 186.021 0.469 A 22.567 22.567 0 0 1 187.665 0.525 Q 189.131 0.632 190.203 0.945 A 5.035 5.035 0 0 1 191.379 1.447 A 3.733 3.733 0 0 1 192.62 2.629 Q 193.187 3.504 193.344 4.905 A 10.323 10.323 0 0 1 193.403 6.05 Q 193.403 8.042 192.48 9.346 A 3.276 3.276 0 0 1 190.57 10.635 A 4.949 4.949 0 0 1 189.653 10.781 A 7.038 7.038 0 0 1 191.074 11.062 Q 191.913 11.327 192.52 11.806 A 3.718 3.718 0 0 1 193.242 12.561 A 5.69 5.69 0 0 1 194.173 14.718 A 8.075 8.075 0 0 1 194.341 16.406 A 14.462 14.462 0 0 1 194.286 17.701 Q 194.182 18.856 193.879 19.702 A 4.045 4.045 0 0 1 193.087 21.057 A 3.815 3.815 0 0 1 192.334 21.702 A 5.275 5.275 0 0 1 191.326 22.208 Q 190.497 22.525 189.397 22.69 Q 187.544 22.969 184.775 22.969 Z M 170.903 12.188 L 170.903 20.625 L 184.775 20.625 A 68.745 68.745 0 0 0 185.735 20.619 Q 187.019 20.601 187.961 20.532 A 22.971 22.971 0 0 0 188.093 20.522 A 8.41 8.41 0 0 0 188.894 20.424 Q 189.652 20.29 190.159 20.024 A 2.169 2.169 0 0 0 191.186 18.864 A 2.805 2.805 0 0 0 191.221 18.772 Q 191.515 17.952 191.528 16.534 A 14.399 14.399 0 0 0 191.528 16.406 A 6.758 6.758 0 0 0 191.472 15.503 Q 191.41 15.043 191.279 14.665 A 2.918 2.918 0 0 0 190.95 13.989 A 3.209 3.209 0 0 0 189.402 12.768 A 3.923 3.923 0 0 0 189.338 12.744 A 7.274 7.274 0 0 0 188.186 12.429 Q 187.621 12.321 186.985 12.278 A 11.812 11.812 0 0 0 186.943 12.275 A 41.132 41.132 0 0 0 185.53 12.21 A 50.6 50.6 0 0 0 184.014 12.188 L 170.903 12.188 Z M 170.903 2.813 L 170.903 9.844 L 184.014 9.844 A 52.75 52.75 0 0 0 185.478 9.825 Q 186.13 9.807 186.694 9.771 A 21.96 21.96 0 0 0 187.734 9.683 A 4.815 4.815 0 0 0 188.596 9.512 Q 189.068 9.369 189.426 9.13 A 2.387 2.387 0 0 0 189.888 8.731 A 2.263 2.263 0 0 0 190.299 8.029 Q 190.549 7.376 190.585 6.386 A 9.372 9.372 0 0 0 190.591 6.05 A 8.336 8.336 0 0 0 190.559 5.29 Q 190.491 4.553 190.28 4.086 A 1.91 1.91 0 0 0 190.173 3.882 Q 189.765 3.209 188.804 3.012 A 3.387 3.387 0 0 0 188.76 3.003 Q 187.764 2.813 186.021 2.813 L 170.903 2.813 Z" id="7" vector-effect="non-scaling-stroke"/><path d="M 198.091 12.012 L 198.091 11.426 A 50.584 50.584 0 0 1 198.132 9.32 Q 198.173 8.344 198.254 7.501 A 23.194 23.194 0 0 1 198.384 6.409 Q 198.608 4.855 199.081 3.744 A 6.46 6.46 0 0 1 199.395 3.106 Q 200.112 1.831 201.35 1.157 A 6.973 6.973 0 0 1 202.603 0.635 Q 203.438 0.374 204.463 0.242 A 26.126 26.126 0 0 1 205.976 0.094 Q 206.82 0.035 207.78 0.013 A 51.876 51.876 0 0 1 208.975 0 L 214.878 0 Q 217.159 0 218.9 0.163 A 24.775 24.775 0 0 1 219.968 0.286 A 10.908 10.908 0 0 1 221.403 0.576 Q 222.132 0.779 222.725 1.076 A 5.529 5.529 0 0 1 223.308 1.414 Q 224.575 2.256 225.146 3.889 A 8.675 8.675 0 0 1 225.483 5.2 Q 225.608 5.886 225.666 6.695 A 21.204 21.204 0 0 1 225.718 8.218 L 222.905 8.218 A 19.145 19.145 0 0 0 222.869 6.997 Q 222.796 5.864 222.578 5.092 A 5.039 5.039 0 0 0 222.524 4.915 A 3.609 3.609 0 0 0 222.148 4.093 A 2.637 2.637 0 0 0 221.243 3.208 A 4.002 4.002 0 0 0 220.439 2.858 Q 220.043 2.731 219.571 2.651 A 9.11 9.11 0 0 0 218.789 2.556 A 33.439 33.439 0 0 0 217.569 2.483 Q 216.979 2.457 216.306 2.444 A 75.414 75.414 0 0 0 214.878 2.432 L 208.975 2.432 Q 206.88 2.432 205.444 2.556 A 9.333 9.333 0 0 0 204.482 2.687 Q 204.009 2.779 203.613 2.917 A 4.396 4.396 0 0 0 203.108 3.127 A 2.971 2.971 0 0 0 201.796 4.415 A 3.708 3.708 0 0 0 201.731 4.541 Q 201.398 5.218 201.212 6.238 A 12.61 12.61 0 0 0 201.079 7.178 A 27.083 27.083 0 0 0 200.979 8.433 Q 200.903 9.734 200.903 11.426 L 200.903 12.012 A 58.317 58.317 0 0 0 200.926 13.692 Q 200.966 15.092 201.079 16.143 Q 201.255 17.783 201.731 18.765 Q 202.207 19.746 203.108 20.23 A 4.632 4.632 0 0 0 203.928 20.567 Q 204.343 20.695 204.832 20.777 A 9.521 9.521 0 0 0 205.444 20.859 Q 206.431 20.96 207.73 20.992 A 51.477 51.477 0 0 0 208.975 21.006 L 214.878 21.006 A 95.13 95.13 0 0 0 216.007 20.999 Q 217.517 20.982 218.632 20.913 A 32.367 32.367 0 0 0 218.789 20.903 A 9.007 9.007 0 0 0 219.759 20.79 Q 220.229 20.707 220.619 20.575 A 3.841 3.841 0 0 0 221.243 20.303 A 2.562 2.562 0 0 0 222.252 19.273 A 3.637 3.637 0 0 0 222.524 18.64 Q 222.868 17.588 222.902 15.765 A 21.88 21.88 0 0 0 222.905 15.366 L 225.718 15.366 A 20.957 20.957 0 0 1 225.662 16.945 Q 225.602 17.742 225.476 18.416 A 8.373 8.373 0 0 1 225.146 19.673 A 5.269 5.269 0 0 1 224.486 20.969 A 4.243 4.243 0 0 1 223.308 22.097 A 6.088 6.088 0 0 1 222.045 22.703 Q 221.134 23.026 219.968 23.174 A 28.983 28.983 0 0 1 218.281 23.335 Q 217.522 23.386 216.672 23.412 A 59.402 59.402 0 0 1 214.878 23.438 L 208.975 23.438 A 40.249 40.249 0 0 1 206.847 23.385 Q 204.949 23.284 203.555 22.991 A 8.379 8.379 0 0 1 202.092 22.55 Q 201.226 22.193 200.581 21.657 A 4.904 4.904 0 0 1 200.237 21.343 A 5.315 5.315 0 0 1 199.262 19.958 Q 198.955 19.345 198.742 18.596 A 10.52 10.52 0 0 1 198.567 17.886 A 18.579 18.579 0 0 1 198.296 16.174 Q 198.091 14.386 198.091 12.012 Z" id="8" vector-effect="non-scaling-stroke"/></g></svg>