<svg width="151.25" height="31.914" viewBox="0 0 151.25 31.914" xmlns="http://www.w3.org/2000/svg"><g id="svgGroup" stroke-linecap="round" fill-rule="evenodd" font-size="9pt" stroke="#000000" stroke-width="0.35mm" fill="#d6d6d6" style="stroke:#000000;stroke-width:0.35mm;fill:#d6d6d6"><path d="M 74.414 7.148 L 74.414 7.656 A 135.907 135.907 0 0 1 74.258 14.16 Q 74.102 17.422 73.867 20.664 A 32.427 32.427 0 0 0 73.848 20.983 Q 73.828 21.338 73.807 21.802 A 106.566 106.566 0 0 0 73.789 22.246 A 31.073 31.073 0 0 1 73.73 23.281 A 38.914 38.914 0 0 1 73.633 24.395 Q 73.516 25.547 73.32 26.719 Q 73.125 27.891 72.715 28.848 A 5.235 5.235 0 0 1 72.246 29.717 A 4.072 4.072 0 0 1 71.66 30.41 A 2.213 2.213 0 0 1 70.136 31.015 A 2.862 2.862 0 0 1 70.078 31.016 A 3.271 3.271 0 0 1 69.217 30.906 A 2.777 2.777 0 0 1 68.613 30.664 Q 67.969 30.313 67.539 29.746 A 4.273 4.273 0 0 1 66.921 28.591 A 4.854 4.854 0 0 1 66.875 28.457 A 4.844 4.844 0 0 1 66.641 26.953 A 43.581 43.581 0 0 1 66.719 24.355 Q 66.797 23.047 66.953 21.758 L 63.086 22.148 Q 62.969 23.164 62.832 24.59 Q 62.695 26.016 62.285 27.324 A 6.527 6.527 0 0 1 61.612 28.815 A 5.703 5.703 0 0 1 61.055 29.57 Q 60.234 30.508 58.789 30.508 Q 57.891 30.508 57.305 30.098 Q 56.719 29.688 56.367 29.043 Q 56.016 28.398 55.859 27.617 A 8.135 8.135 0 0 1 55.725 26.671 A 6.751 6.751 0 0 1 55.703 26.133 A 55.72 55.72 0 0 1 55.898 21.465 A 92.56 92.56 0 0 0 56.172 16.797 A 124.481 124.481 0 0 0 56.234 12.847 A 125.92 125.92 0 0 0 56.23 11.855 A 126.119 126.119 0 0 1 56.227 10.863 A 127.656 127.656 0 0 1 56.289 6.875 A 49.673 49.673 0 0 0 56.316 6.221 Q 56.335 5.645 56.348 4.961 A 8.989 8.989 0 0 1 56.485 3.522 A 7.776 7.776 0 0 1 56.621 2.91 Q 56.875 1.953 57.48 1.289 A 1.913 1.913 0 0 1 58.353 0.752 Q 58.664 0.657 59.039 0.633 A 4.07 4.07 0 0 1 59.297 0.625 Q 60.977 0.625 61.836 1.504 A 4.723 4.723 0 0 1 62.897 3.216 A 5.767 5.767 0 0 1 63.047 3.691 A 10.448 10.448 0 0 1 63.39 6.011 A 11.911 11.911 0 0 1 63.398 6.465 L 63.398 9.102 Q 63.398 10.664 63.32 12.168 Q 63.242 13.672 63.164 15.195 L 67.344 14.57 Q 67.383 12.656 67.422 10.781 Q 67.461 8.906 67.578 7.031 A 349.71 349.71 0 0 0 67.617 6.104 A 420.127 420.127 0 0 0 67.656 5.117 A 7.562 7.562 0 0 1 67.797 3.909 A 6.338 6.338 0 0 1 67.969 3.242 A 3.113 3.113 0 0 1 68.887 1.816 Q 69.378 1.384 70.245 1.282 A 4.906 4.906 0 0 1 70.82 1.25 A 3.123 3.123 0 0 1 71.612 1.345 A 2.297 2.297 0 0 1 72.598 1.875 A 4.62 4.62 0 0 1 73.636 3.28 A 5.314 5.314 0 0 1 73.691 3.398 A 7.233 7.233 0 0 1 74.258 5.313 A 14.555 14.555 0 0 1 74.37 6.222 Q 74.414 6.713 74.414 7.148 Z M 105.586 2.539 Q 105.586 3.398 105.273 4.375 A 16.088 16.088 0 0 1 104.61 6.091 A 17.951 17.951 0 0 1 104.492 6.348 Q 104.023 7.344 103.496 8.281 A 186.877 186.877 0 0 1 103.008 9.144 Q 102.776 9.551 102.567 9.913 A 110.225 110.225 0 0 1 102.539 9.961 Q 101.641 11.641 100.742 13.34 Q 99.844 15.039 98.828 16.719 Q 99.336 17.578 100.137 19.063 Q 100.938 20.547 101.699 22.188 Q 102.461 23.828 103.027 25.391 Q 103.581 26.917 103.593 27.922 A 3.709 3.709 0 0 1 103.594 27.969 Q 103.594 28.75 103.164 29.434 Q 102.734 30.117 101.836 30.117 A 2.797 2.797 0 0 1 100.685 29.858 Q 100.297 29.684 99.906 29.394 A 5.449 5.449 0 0 1 99.707 29.238 Q 98.633 28.359 97.676 27.148 A 28.658 28.658 0 0 1 95.918 24.668 A 190.396 190.396 0 0 1 95.538 24.064 Q 95 23.203 94.648 22.617 A 58.442 58.442 0 0 1 93.301 24.297 A 58.442 58.442 0 0 0 91.953 25.977 Q 91.523 26.523 90.918 27.285 A 19.748 19.748 0 0 1 89.769 28.603 A 21.727 21.727 0 0 1 89.59 28.789 Q 88.867 29.531 88.105 30.039 A 3.525 3.525 0 0 1 87.542 30.349 Q 87.08 30.547 86.641 30.547 A 1.986 1.986 0 0 1 86.284 30.517 Q 86.07 30.478 85.897 30.388 A 1.157 1.157 0 0 1 85.801 30.332 Q 85.469 30.117 85.254 29.766 A 2.558 2.558 0 0 1 84.961 29.064 A 2.905 2.905 0 0 1 84.941 28.984 A 3.867 3.867 0 0 1 84.844 28.125 Q 84.844 26.914 85.254 25.684 A 16.366 16.366 0 0 1 85.946 23.937 A 14.379 14.379 0 0 1 86.211 23.398 A 193.08 193.08 0 0 1 90.234 15.352 A 24.981 24.981 0 0 1 89.945 14.721 Q 89.651 14.061 89.283 13.155 A 88.615 88.615 0 0 1 89.16 12.852 A 85.193 85.193 0 0 1 88.204 10.361 A 95.636 95.636 0 0 1 87.891 9.492 A 47.805 47.805 0 0 1 87.052 6.91 A 42.306 42.306 0 0 1 86.816 6.074 A 18.1 18.1 0 0 1 86.58 5.1 Q 86.386 4.185 86.369 3.524 A 4.862 4.862 0 0 1 86.367 3.398 A 3.997 3.997 0 0 1 86.545 2.189 A 3.516 3.516 0 0 1 86.914 1.387 A 1.791 1.791 0 0 1 88.147 0.559 A 2.917 2.917 0 0 1 88.711 0.508 A 2.459 2.459 0 0 1 90.02 0.879 A 4.945 4.945 0 0 1 91.004 1.678 A 5.59 5.59 0 0 1 91.133 1.816 Q 91.641 2.383 92.031 3.027 A 11.698 11.698 0 0 1 92.363 3.61 Q 92.511 3.888 92.624 4.146 A 6.904 6.904 0 0 1 92.656 4.219 A 570.163 570.163 0 0 0 93.984 7.012 Q 94.648 8.398 95.234 9.883 A 105.974 105.974 0 0 1 95.405 9.585 Q 95.597 9.253 95.85 8.816 A 359.645 359.645 0 0 1 96.094 8.398 A 35.057 35.057 0 0 1 96.68 7.432 A 44.241 44.241 0 0 1 97.344 6.406 A 46.176 46.176 0 0 1 98.464 4.802 A 51.707 51.707 0 0 1 98.867 4.258 A 20.882 20.882 0 0 1 100.014 2.855 A 17.81 17.81 0 0 1 100.547 2.285 A 11.318 11.318 0 0 1 101.493 1.417 A 8.871 8.871 0 0 1 102.285 0.84 A 4.24 4.24 0 0 1 102.904 0.506 Q 103.267 0.35 103.613 0.298 A 2.263 2.263 0 0 1 103.945 0.273 A 1.468 1.468 0 0 1 104.502 0.374 Q 104.862 0.52 105.095 0.878 A 1.801 1.801 0 0 1 105.195 1.055 Q 105.579 1.822 105.586 2.514 A 2.538 2.538 0 0 1 105.586 2.539 Z M 34.779 25.136 A 2.889 2.889 0 0 0 35.078 23.867 A 2.794 2.794 0 0 0 35.066 23.611 A 3.048 3.048 0 0 0 34.863 22.773 A 3.769 3.769 0 0 0 34.785 22.589 A 3.248 3.248 0 0 0 34.297 21.816 A 2.718 2.718 0 0 0 33.438 21.152 Q 32.93 20.898 32.344 20.898 Q 31.836 20.898 30.781 21.152 A 31.767 31.767 0 0 0 30.249 21.285 A 36.341 36.341 0 0 0 28.594 21.758 A 94.368 94.368 0 0 0 28.033 21.934 A 83.583 83.583 0 0 0 26.426 22.461 A 861.811 861.811 0 0 1 26.349 22.487 Q 25.373 22.818 24.922 22.969 L 24.766 21.875 Q 24.688 21.328 24.688 20.781 Q 24.688 20.43 24.766 20.059 A 21.221 21.221 0 0 1 24.844 19.702 A 16.618 16.618 0 0 1 24.922 19.375 Q 26.289 18.906 27.656 18.418 A 19.673 19.673 0 0 0 30.273 17.266 Q 30.781 16.992 31.309 16.699 A 5.068 5.068 0 0 0 31.382 16.658 A 4.535 4.535 0 0 0 32.246 16.016 A 3.22 3.22 0 0 0 32.91 15.117 A 2.313 2.313 0 0 0 33.101 14.568 A 2.949 2.949 0 0 0 33.164 13.945 Q 33.164 11.809 31.471 11.342 A 4.069 4.069 0 0 0 30.391 11.211 A 7.532 7.532 0 0 0 29.03 11.339 A 9.736 9.736 0 0 0 27.5 11.758 A 26.213 26.213 0 0 0 26.227 12.251 A 20.253 20.253 0 0 0 24.766 12.93 A 17.654 17.654 0 0 1 25.02 11.074 Q 25.195 10.156 25.352 9.258 A 29.68 29.68 0 0 1 25.443 9.219 Q 25.852 9.045 26.622 8.73 A 290.706 290.706 0 0 1 27.246 8.477 A 53.892 53.892 0 0 0 28.1 8.121 A 63.212 63.212 0 0 0 30.059 7.246 Q 31.523 6.563 32.773 5.859 Q 34.023 5.156 34.414 4.648 A 6.615 6.615 0 0 0 34.498 4.513 Q 34.601 4.342 34.681 4.184 A 3.527 3.527 0 0 0 34.824 3.867 A 1.667 1.667 0 0 0 34.871 3.728 Q 34.961 3.419 34.961 3.008 A 2.922 2.922 0 0 0 34.746 1.895 A 3.44 3.44 0 0 0 34.16 0.938 Q 33.789 0.508 33.262 0.254 Q 32.734 0 32.148 0 A 4.809 4.809 0 0 0 31.947 0.005 Q 31.61 0.019 31.123 0.077 A 22.83 22.83 0 0 0 30.664 0.137 A 48.199 48.199 0 0 0 29.634 0.293 A 65.526 65.526 0 0 0 28.496 0.488 A 38.535 38.535 0 0 0 27.894 0.602 A 44.228 44.228 0 0 0 26.016 1.016 A 41.363 41.363 0 0 0 25.074 1.256 A 34.188 34.188 0 0 0 23.613 1.68 A 20.694 20.694 0 0 0 23.306 1.779 Q 22.854 1.93 22.454 2.088 A 12.202 12.202 0 0 0 21.68 2.422 A 7.055 7.055 0 0 0 21.399 2.563 Q 21.012 2.769 20.783 2.963 A 1.378 1.378 0 0 0 20.586 3.164 A 8.351 8.351 0 0 0 19.769 4.53 A 11.098 11.098 0 0 0 19.16 6.113 A 24.603 24.603 0 0 0 18.359 9.746 A 41.481 41.481 0 0 0 17.988 13.516 A 89.28 89.28 0 0 0 17.963 14.034 Q 17.891 15.594 17.891 16.836 Q 17.891 17.129 17.902 17.686 A 134.501 134.501 0 0 0 17.91 18.086 A 47.236 47.236 0 0 0 17.916 18.333 Q 17.927 18.71 17.945 19.133 A 82.947 82.947 0 0 0 17.988 20.059 A 201.419 201.419 0 0 0 18.052 21.201 A 234.247 234.247 0 0 0 18.125 22.402 Q 18.203 23.633 18.301 24.727 A 36.207 36.207 0 0 0 18.329 25.029 Q 18.373 25.474 18.423 25.871 A 20.248 20.248 0 0 0 18.535 26.641 A 11.799 11.799 0 0 0 18.555 26.757 Q 18.649 27.287 18.752 27.565 A 1.15 1.15 0 0 0 18.828 27.734 Q 19.102 28.203 19.707 28.711 A 7.057 7.057 0 0 0 19.793 28.782 A 7.633 7.633 0 0 0 21.055 29.609 Q 21.797 30 22.539 30.254 A 6.192 6.192 0 0 0 22.862 30.355 Q 23.123 30.429 23.356 30.467 A 2.935 2.935 0 0 0 23.828 30.508 A 3.102 3.102 0 0 0 24.234 30.478 Q 24.743 30.41 25.483 30.189 A 18.883 18.883 0 0 0 26.25 29.941 A 34.573 34.573 0 0 0 27.287 29.565 A 40.607 40.607 0 0 0 29.648 28.574 A 31.817 31.817 0 0 0 30.923 27.96 A 26.302 26.302 0 0 0 32.852 26.875 A 13.057 13.057 0 0 0 33.463 26.473 Q 34.051 26.059 34.387 25.702 A 2.238 2.238 0 0 0 34.688 25.313 A 3.466 3.466 0 0 0 34.779 25.136 Z M 54.022 11.15 A 7.025 7.025 0 0 0 54.102 10.117 A 16.672 16.672 0 0 0 54.058 8.921 A 20.024 20.024 0 0 0 53.789 6.816 A 12.119 12.119 0 0 0 53.748 6.6 A 10.762 10.762 0 0 0 52.695 3.613 Q 51.914 2.148 50.625 1.191 A 4.686 4.686 0 0 0 48.919 0.403 A 6.322 6.322 0 0 0 47.422 0.234 A 8.739 8.739 0 0 0 47.179 0.238 A 7.455 7.455 0 0 0 43.848 1.094 A 10.78 10.78 0 0 0 40.938 3.359 A 13.879 13.879 0 0 0 40.314 4.089 A 15.557 15.557 0 0 0 38.691 6.602 A 23.728 23.728 0 0 0 37.109 10.41 Q 36.484 12.383 36.172 14.336 Q 35.859 16.289 35.859 17.93 Q 35.859 20.391 36.387 22.871 A 16.363 16.363 0 0 0 36.549 23.559 A 14.225 14.225 0 0 0 38.125 27.363 Q 39.336 29.375 41.289 30.645 A 7.605 7.605 0 0 0 43.835 31.688 A 10.384 10.384 0 0 0 46.055 31.914 A 5.339 5.339 0 0 0 46.335 31.907 Q 47.319 31.855 48.496 31.445 A 9.891 9.891 0 0 0 50.996 30.156 A 9.382 9.382 0 0 0 51.143 30.049 A 8.303 8.303 0 0 0 52.93 28.262 A 4.721 4.721 0 0 0 53.001 28.161 A 3.847 3.847 0 0 0 53.711 25.938 A 2.508 2.508 0 0 0 53.125 24.316 A 2.346 2.346 0 0 0 53.008 24.182 A 1.808 1.808 0 0 0 51.641 23.594 A 6.188 6.188 0 0 0 50.098 23.789 Q 49.336 23.984 48.594 24.238 Q 47.852 24.492 47.109 24.688 A 5.961 5.961 0 0 1 45.586 24.883 A 3.084 3.084 0 0 1 44.907 24.812 A 2.022 2.022 0 0 1 43.789 24.16 A 4.307 4.307 0 0 1 43.302 23.468 A 5.179 5.179 0 0 1 42.852 22.402 Q 42.539 21.367 42.48 20.234 A 53.138 53.138 0 0 1 42.45 19.557 Q 42.422 18.845 42.422 18.281 Q 42.422 17.813 42.466 17.135 A 35.338 35.338 0 0 1 42.5 16.66 A 24.271 24.271 0 0 1 42.572 15.897 A 29.097 29.097 0 0 1 42.754 14.551 Q 42.93 13.438 43.223 12.305 Q 43.516 11.172 43.945 10.273 A 5.976 5.976 0 0 1 44.367 9.527 A 4.389 4.389 0 0 1 44.961 8.809 Q 45.547 8.242 46.328 8.242 A 1.924 1.924 0 0 1 46.396 8.243 Q 46.575 8.25 46.72 8.29 A 0.765 0.765 0 0 1 47.246 8.73 A 2.414 2.414 0 0 1 47.337 8.973 Q 47.405 9.187 47.446 9.44 A 4.85 4.85 0 0 1 47.5 9.961 A 49.344 49.344 0 0 1 47.534 10.728 A 59.29 59.29 0 0 1 47.559 11.543 A 5.455 5.455 0 0 0 47.562 11.648 A 4.841 4.841 0 0 0 47.852 13.125 Q 48.125 13.867 48.789 14.355 A 1.723 1.723 0 0 0 48.859 14.404 Q 49.523 14.844 50.82 14.844 A 3.08 3.08 0 0 0 51.265 14.813 A 2.325 2.325 0 0 0 52.344 14.375 Q 52.969 13.906 53.359 13.203 Q 53.75 12.5 53.926 11.68 A 8.477 8.477 0 0 0 54.022 11.15 Z M 151.171 11.15 A 7.025 7.025 0 0 0 151.25 10.117 A 16.672 16.672 0 0 0 151.206 8.921 A 20.024 20.024 0 0 0 150.938 6.816 A 12.119 12.119 0 0 0 150.897 6.6 A 10.762 10.762 0 0 0 149.844 3.613 Q 149.063 2.148 147.773 1.191 A 4.686 4.686 0 0 0 146.068 0.403 A 6.322 6.322 0 0 0 144.57 0.234 A 8.739 8.739 0 0 0 144.327 0.238 A 7.455 7.455 0 0 0 140.996 1.094 A 10.78 10.78 0 0 0 138.086 3.359 A 13.879 13.879 0 0 0 137.462 4.089 A 15.557 15.557 0 0 0 135.84 6.602 A 23.728 23.728 0 0 0 134.258 10.41 Q 133.633 12.383 133.32 14.336 Q 133.008 16.289 133.008 17.93 Q 133.008 20.391 133.535 22.871 A 16.363 16.363 0 0 0 133.697 23.559 A 14.225 14.225 0 0 0 135.273 27.363 Q 136.484 29.375 138.438 30.645 A 7.605 7.605 0 0 0 140.983 31.688 A 10.384 10.384 0 0 0 143.203 31.914 A 5.339 5.339 0 0 0 143.484 31.907 Q 144.467 31.855 145.645 31.445 A 9.891 9.891 0 0 0 148.145 30.156 A 9.382 9.382 0 0 0 148.292 30.049 A 8.303 8.303 0 0 0 150.078 28.262 A 4.721 4.721 0 0 0 150.15 28.161 A 3.847 3.847 0 0 0 150.859 25.938 A 2.508 2.508 0 0 0 150.273 24.316 A 2.346 2.346 0 0 0 150.156 24.182 A 1.808 1.808 0 0 0 148.789 23.594 A 6.188 6.188 0 0 0 147.246 23.789 Q 146.484 23.984 145.742 24.238 Q 145 24.492 144.258 24.688 A 5.961 5.961 0 0 1 142.734 24.883 A 3.084 3.084 0 0 1 142.055 24.812 A 2.022 2.022 0 0 1 140.938 24.16 A 4.307 4.307 0 0 1 140.45 23.468 A 5.179 5.179 0 0 1 140 22.402 Q 139.688 21.367 139.629 20.234 A 53.138 53.138 0 0 1 139.598 19.557 Q 139.57 18.845 139.57 18.281 Q 139.57 17.813 139.614 17.135 A 35.338 35.338 0 0 1 139.648 16.66 A 24.271 24.271 0 0 1 139.721 15.897 A 29.097 29.097 0 0 1 139.902 14.551 Q 140.078 13.438 140.371 12.305 Q 140.664 11.172 141.094 10.273 A 5.976 5.976 0 0 1 141.515 9.527 A 4.389 4.389 0 0 1 142.109 8.809 Q 142.695 8.242 143.477 8.242 A 1.924 1.924 0 0 1 143.544 8.243 Q 143.723 8.25 143.868 8.29 A 0.765 0.765 0 0 1 144.395 8.73 A 2.414 2.414 0 0 1 144.486 8.973 Q 144.553 9.187 144.594 9.44 A 4.85 4.85 0 0 1 144.648 9.961 A 49.344 49.344 0 0 1 144.683 10.728 A 59.29 59.29 0 0 1 144.707 11.543 A 5.455 5.455 0 0 0 144.71 11.648 A 4.841 4.841 0 0 0 145 13.125 Q 145.273 13.867 145.938 14.355 A 1.723 1.723 0 0 0 146.007 14.404 Q 146.672 14.844 147.969 14.844 A 3.08 3.08 0 0 0 148.414 14.813 A 2.325 2.325 0 0 0 149.492 14.375 Q 150.117 13.906 150.508 13.203 Q 150.898 12.5 151.074 11.68 A 8.477 8.477 0 0 0 151.171 11.15 Z M 19.575 4.791 A 2.417 2.417 0 0 0 20.078 3.32 Q 20.078 2.344 19.59 1.797 Q 19.102 1.25 18.359 0.977 Q 17.617 0.703 16.777 0.645 A 25.625 25.625 0 0 0 16.161 0.609 A 21.23 21.23 0 0 0 15.195 0.586 Q 14.609 0.586 13.661 0.652 A 53.597 53.597 0 0 0 12.988 0.703 Q 11.563 0.82 9.863 1.074 Q 8.164 1.328 6.426 1.777 A 22.281 22.281 0 0 0 5.166 2.142 A 18.1 18.1 0 0 0 3.262 2.871 A 9.851 9.851 0 0 0 2.037 3.527 A 7.166 7.166 0 0 0 0.918 4.395 A 3.646 3.646 0 0 0 0.767 4.548 A 2.709 2.709 0 0 0 0 6.445 A 1.882 1.882 0 0 0 0.002 6.535 A 1.456 1.456 0 0 0 0.508 7.598 A 3.407 3.407 0 0 0 0.885 7.886 A 3.906 3.906 0 0 0 1.719 8.301 A 6.872 6.872 0 0 0 3.184 8.652 A 19.245 19.245 0 0 0 3.253 8.661 Q 3.967 8.75 4.414 8.75 A 16.747 16.747 0 0 0 5.566 8.711 A 15.327 15.327 0 0 0 6.68 8.594 A 382.945 382.945 0 0 1 6.66 12.5 A 382.945 382.945 0 0 0 6.641 16.406 A 287.177 287.177 0 0 0 6.68 21.152 A 280.377 280.377 0 0 0 6.797 25.859 A 9.517 9.517 0 0 0 6.797 25.907 Q 6.799 26.269 6.828 26.672 A 15.657 15.657 0 0 0 6.914 27.52 A 6.962 6.962 0 0 0 7.363 29.258 A 4.423 4.423 0 0 0 7.411 29.372 A 3.813 3.813 0 0 0 8.301 30.645 A 2.029 2.029 0 0 0 9.231 31.135 A 2.951 2.951 0 0 0 9.922 31.211 A 2.707 2.707 0 0 0 10.184 31.199 A 2.065 2.065 0 0 0 11.367 30.703 A 3.545 3.545 0 0 0 12.285 29.453 Q 12.617 28.711 12.754 27.871 A 11.242 11.242 0 0 0 12.852 27.114 A 8.441 8.441 0 0 0 12.891 26.328 Q 12.891 24.766 12.813 23.203 Q 12.734 21.641 12.734 20.039 A 102.088 102.088 0 0 1 12.91 14.043 A 134.375 134.375 0 0 1 13.398 8.047 Q 14.141 7.891 15.273 7.5 A 13.357 13.357 0 0 0 17.48 6.504 Q 18.555 5.898 19.316 5.098 A 3.294 3.294 0 0 0 19.575 4.791 Z M 130.898 11.816 A 9.325 9.325 0 0 0 132.227 6.914 A 7.014 7.014 0 0 0 132.177 6.072 A 5.575 5.575 0 0 0 131.621 4.199 A 6.226 6.226 0 0 0 130.02 2.188 A 6.239 6.239 0 0 0 129.345 1.704 A 7.018 7.018 0 0 0 127.676 0.957 Q 126.328 0.547 124.883 0.547 A 10.126 10.126 0 0 0 124.075 0.58 A 12.203 12.203 0 0 0 122.656 0.781 A 19.504 19.504 0 0 0 120.313 1.406 A 19.166 19.166 0 0 0 118.047 2.324 Q 116.953 2.852 116.055 3.438 A 0.536 0.536 0 0 0 115.928 3.562 Q 115.822 3.701 115.73 3.952 A 3.6 3.6 0 0 0 115.645 4.219 A 6.438 6.438 0 0 0 115.582 4.459 Q 115.451 5.007 115.371 5.723 A 32.366 32.366 0 0 0 115.283 6.636 A 39.93 39.93 0 0 0 115.215 7.617 A 59.489 59.489 0 0 0 115.185 8.181 A 51.077 51.077 0 0 0 115.137 9.551 A 389 389 0 0 1 115.117 10.425 A 283.059 283.059 0 0 1 115.098 11.211 A 118.226 118.226 0 0 0 115.097 11.238 Q 115.083 11.776 115.079 12.105 A 18.626 18.626 0 0 0 115.078 12.305 Q 115 13.672 115 15.059 L 115 17.813 L 115 19.18 A 52.199 52.199 0 0 0 115.001 19.461 Q 115.003 19.891 115.012 20.377 A 95.382 95.382 0 0 0 115.039 21.445 A 96.984 96.984 0 0 0 115.061 22.097 A 110.793 110.793 0 0 0 115.156 24.141 A 51.57 51.57 0 0 0 115.249 25.498 A 41.511 41.511 0 0 0 115.371 26.758 A 19.283 19.283 0 0 0 115.441 27.305 Q 115.503 27.744 115.58 28.127 A 9.658 9.658 0 0 0 115.742 28.809 A 4.88 4.88 0 0 0 115.749 28.832 Q 115.908 29.391 116.12 29.622 A 0.502 0.502 0 0 0 116.328 29.766 Q 117.305 30.156 118.398 30.313 Q 119.492 30.469 120.586 30.469 Q 122.578 30.469 124.59 29.941 A 13.781 13.781 0 0 0 124.778 29.891 A 12.258 12.258 0 0 0 128.242 28.34 Q 129.883 27.266 130.918 25.605 Q 131.953 23.945 131.953 21.719 A 7.924 7.924 0 0 0 131.66 19.551 A 7.027 7.027 0 0 0 131.578 19.28 A 6.117 6.117 0 0 0 130.801 17.695 A 5.168 5.168 0 0 0 129.375 16.309 A 5.06 5.06 0 0 0 128.501 15.851 A 6.346 6.346 0 0 0 127.344 15.508 A 11.576 11.576 0 0 0 130.898 11.816 Z M 125.512 8.187 A 0.954 0.954 0 0 0 125.332 8.008 A 1.457 1.457 0 0 0 124.799 7.757 Q 124.554 7.695 124.258 7.695 A 2.876 2.876 0 0 0 123.588 7.778 A 3.762 3.762 0 0 0 123.105 7.93 A 3.515 3.515 0 0 0 122.433 8.273 A 2.988 2.988 0 0 0 122.07 8.555 Q 121.969 8.656 121.882 9.082 A 5.587 5.587 0 0 0 121.855 9.219 A 11.686 11.686 0 0 0 121.768 9.8 A 16.034 16.034 0 0 0 121.699 10.449 Q 121.641 11.133 121.621 11.738 A 92.416 92.416 0 0 0 121.613 11.984 Q 121.604 12.292 121.602 12.454 A 6.579 6.579 0 0 0 121.602 12.539 L 121.602 12.793 A 3.548 3.548 0 0 0 121.611 13.044 A 4.186 4.186 0 0 0 121.621 13.164 A 2.863 2.863 0 0 0 121.646 13.35 A 2.127 2.127 0 0 0 121.68 13.516 Q 121.705 13.617 121.747 13.653 A 0.075 0.075 0 0 0 121.797 13.672 A 2.021 2.021 0 0 0 122.53 13.528 Q 122.794 13.426 123.064 13.251 A 3.722 3.722 0 0 0 123.164 13.184 A 5.79 5.79 0 0 0 124.308 12.128 A 6.569 6.569 0 0 0 124.434 11.973 A 7.516 7.516 0 0 0 125.371 10.43 Q 125.639 9.836 125.714 9.345 A 2.415 2.415 0 0 0 125.742 8.984 Q 125.742 8.487 125.512 8.187 Z M 125.586 20.273 A 1.463 1.463 0 0 0 125.545 19.915 A 0.895 0.895 0 0 0 125.117 19.336 A 2.023 2.023 0 0 0 124.189 19.066 A 2.432 2.432 0 0 0 124.063 19.063 A 2.661 2.661 0 0 0 123.402 19.15 A 3.546 3.546 0 0 0 122.91 19.316 A 4.224 4.224 0 0 0 122.406 19.567 Q 122.145 19.719 121.941 19.898 A 2.579 2.579 0 0 0 121.914 19.922 Q 121.797 20 121.738 20.313 A 4.696 4.696 0 0 0 121.685 20.683 A 5.934 5.934 0 0 0 121.66 20.996 A 124.185 124.185 0 0 1 121.641 21.357 A 105.168 105.168 0 0 1 121.621 21.699 Q 121.602 22.031 121.602 22.148 L 121.602 22.461 A 6.177 6.177 0 0 0 121.613 22.823 A 6.995 6.995 0 0 0 121.621 22.949 A 2.722 2.722 0 0 0 121.659 23.244 A 2.227 2.227 0 0 0 121.699 23.418 Q 121.747 23.593 121.808 23.626 A 0.059 0.059 0 0 0 121.836 23.633 A 2.274 2.274 0 0 0 122.37 23.565 Q 122.61 23.507 122.869 23.399 A 4.329 4.329 0 0 0 123.047 23.32 Q 123.711 23.008 124.277 22.539 A 4.317 4.317 0 0 0 125.215 21.465 A 2.745 2.745 0 0 0 125.467 20.943 A 2.008 2.008 0 0 0 125.586 20.273 Z" vector-effect="non-scaling-stroke"/></g></svg>